<svg width="369" height="161" viewBox="0 0 369 161" fill="none" xmlns="http://www.w3.org/2000/svg">
<path d="M58.003 66.5724C57.7999 66.0635 57.5962 65.5041 57.3925 64.8937C57.0873 63.8765 56.9347 62.5541 56.9347 60.9265C56.9347 60.3161 57.3415 59.6807 58.1556 59.0193C58.9691 58.3584 59.8342 57.9005 60.7499 57.6458C61.6655 57.3917 62.5045 57.3661 63.2676 57.5692C64.0306 57.7729 64.4118 58.3833 64.4118 59.4005V60.1635C64.5139 62.9098 65.4801 65.2244 67.3107 67.1068C69.142 68.9885 71.5837 70.0312 74.6352 70.2343C77.992 70.5395 80.9675 69.9802 83.5618 68.5562C86.1561 67.1317 88.3175 65.301 90.0472 63.063C91.7764 60.825 93.0993 58.4344 94.0144 55.8911C94.93 53.3479 95.3878 51.1099 95.3878 49.1771C95.3878 46.8375 94.93 44.8281 94.0144 43.15C93.0987 41.4714 92.0816 40.4287 90.9623 40.0219C90.4534 40.1235 89.9961 40.1745 89.5894 40.1745C89.1826 40.1745 88.7753 40.1745 88.3686 40.1745C85.0112 40.1745 83.3332 39.4626 83.3332 38.038C83.3332 37.5292 83.6894 36.9193 84.4014 36.2068C85.1134 35.4942 86.1816 35.1385 87.6061 35.1385C88.115 35.1385 88.6233 35.1641 89.1322 35.2146C89.641 35.2656 90.1499 35.3416 90.6582 35.4437C90.9628 35.2401 91.9806 34.5531 93.7097 33.3839C95.4395 32.2141 97.2446 30.6625 99.1264 28.7297C101.008 26.7969 102.738 24.5078 104.314 21.863C105.891 19.2182 106.679 16.3193 106.679 13.1651C106.679 8.48596 103.933 6.14582 98.4399 6.14582C96.5071 6.14582 94.2691 6.73071 91.7253 7.90107C89.1826 9.07086 86.6899 10.6474 84.2488 12.6313C81.8071 14.6151 79.5691 16.9036 77.5347 19.4979C75.5004 22.0922 74.0759 24.7625 73.2624 27.5088C73.1602 28.2208 72.9571 28.7802 72.6519 29.1875C72.0421 30.3068 71.4317 30.8662 70.8207 30.8662C70.617 30.8662 70.1592 30.5099 69.4472 29.7979C68.7352 29.086 67.9722 28.1193 67.1587 26.8984C66.3446 25.6776 65.6071 24.2792 64.9456 22.7026C64.2847 21.1255 63.954 19.5235 63.954 17.8959C63.954 16.7771 64.1577 15.8104 64.5644 14.9969C64.6665 14.9969 65.3274 14.2339 66.5483 12.7079C67.7686 11.1818 69.7014 9.52925 72.3467 7.74847C74.9915 5.96827 78.3743 4.31514 82.4935 2.78908C86.6139 1.26303 91.6237 0.5 97.5237 0.5C99.2534 0.5 101.288 0.703667 103.627 1.11042C105.967 1.51718 108.205 2.2802 110.341 3.3995C112.478 4.5188 114.284 6.12029 115.759 8.2057C117.234 10.2911 117.971 13.0125 117.971 16.3698C117.971 17.1833 117.92 18.0479 117.818 18.9635C117.716 19.8792 117.513 20.8963 117.208 22.0156C116.496 24.4567 115.326 26.6948 113.699 28.7297C112.274 30.561 110.265 32.3667 107.672 34.1463C105.077 35.9271 101.644 37.3255 97.3717 38.3427C97.4732 38.3427 98.1347 38.5713 99.355 39.0291C100.576 39.4869 101.873 40.2755 103.246 41.3942C104.62 42.5135 105.865 43.9885 106.985 45.8192C108.104 47.6504 108.663 49.99 108.663 52.8384C108.663 56.6025 107.849 60.0359 106.222 63.1384C104.594 66.241 102.382 68.9113 99.5836 71.1494C96.7862 73.3874 93.5055 75.1165 89.7414 76.3374C85.9773 77.5576 82.0102 78.1686 77.8394 78.1686C76.2118 78.1686 74.4571 78.016 72.5748 77.7108C70.693 77.4056 68.8617 76.8207 67.0815 75.9561C65.3008 75.091 63.5971 73.8963 61.9695 72.3702C60.3419 70.8441 59.0196 68.9113 58.0024 66.5718L58.003 66.5724ZM65.6327 56.501C65.429 56.3994 65.3524 56.0687 65.4035 55.5093C65.4545 54.95 65.5561 54.238 65.7087 53.3734C65.8613 52.5089 66.0899 51.6182 66.3951 50.7031C66.6997 49.7875 67.0055 48.9229 67.3107 48.1094C68.0233 45.9729 68.9639 43.5568 70.1337 40.861C71.3034 38.1651 72.5753 35.4948 73.9488 32.85C75.3222 30.2053 76.7717 27.7125 78.2978 25.3729C79.8238 23.0334 81.2988 21.1006 82.7227 19.5745C82.7227 19.5745 82.7987 19.4474 82.9513 19.1933C83.104 18.9386 83.4092 18.6589 83.867 18.3537C84.3248 18.0485 85.0112 17.7688 85.9269 17.5146C86.8425 17.2605 88.0633 17.1334 89.5894 17.1334C89.894 17.1334 90.1992 17.2094 90.505 17.362C90.8102 17.5146 90.9628 17.8964 90.9628 18.5069C90.9628 19.0157 90.6071 19.7788 89.8946 20.7954C89.1826 21.8125 88.2415 23.4152 87.0717 25.6021C85.9019 27.7891 84.5285 30.7391 82.9519 34.4527C81.3748 38.1657 79.6712 42.9725 77.8399 48.8724C77.7378 49.3813 77.5347 50.2708 77.2295 51.5428C76.9249 52.8147 76.5686 54.1109 76.1613 55.4339C75.7545 56.7563 75.2967 57.9261 74.7878 58.9432C74.2789 59.9604 73.7706 60.4693 73.2618 60.4693C72.4483 60.4693 71.2779 60.1896 69.7524 59.6303C68.2264 59.0709 67.0566 58.2823 66.2431 57.2652L65.6332 56.5021L65.6327 56.501ZM145.285 49.3291C145.896 49.838 145.794 50.6515 144.98 51.7708C144.166 52.9916 142.819 54.7208 140.936 56.9588C139.054 59.1968 136.816 61.3078 134.222 63.2911C131.628 65.2749 128.806 66.8004 125.753 67.8686C122.701 68.9369 119.65 68.9624 116.598 67.9446C113.75 67.029 111.868 65.4269 110.952 63.1379C110.037 60.8494 109.808 58.3317 110.265 55.5848C110.724 52.8384 111.715 50.0411 113.241 47.192C114.767 44.3436 116.547 41.801 118.582 39.5624C119.802 38.24 121.15 36.9936 122.625 35.8244C124.1 34.6546 125.652 33.6879 127.279 32.9255C128.906 32.1624 130.535 31.7557 132.162 31.7046C133.79 31.6536 135.316 32.0858 136.74 33.0021C137.655 33.6119 138.266 34.4515 138.571 35.5198C138.876 36.588 138.927 37.7578 138.724 39.0291C138.521 40.301 138.088 41.5979 137.427 42.9203C136.766 44.2426 135.977 45.5145 135.062 46.7348C134.349 47.752 133.637 48.5661 132.925 49.1765C132.519 49.5833 132.162 49.9395 131.857 50.2447C131.552 50.5499 131.145 50.8041 130.637 51.0078C128.704 52.4323 126.797 53.3729 124.915 53.8307C123.033 54.2885 121.482 54.6187 120.261 54.8223C120.159 56.9588 120.565 58.4083 121.482 59.1713C122.397 59.9343 123.593 60.2906 125.068 60.2395C126.543 60.1885 128.221 59.7562 130.104 58.9421C131.985 58.1286 133.791 57.1874 135.52 56.1192C137.249 55.0509 138.826 53.9067 140.25 52.6858C141.675 51.465 142.743 50.3968 143.455 49.4817C143.659 49.278 143.938 49.151 144.294 49.1005C144.65 49.0494 144.981 49.126 145.286 49.3291H145.285ZM120.871 48.7187C120.667 49.126 120.565 49.5072 120.565 49.8635C120.565 50.2192 120.464 50.601 120.261 51.0078C121.176 50.4989 121.965 50.0161 122.626 49.5583C123.287 49.1005 123.872 48.6171 124.381 48.1088L125.448 47.0406C126.567 45.9213 127.279 45.0567 127.585 44.4463C128.297 43.327 128.856 42.1828 129.263 41.013C129.67 39.8432 129.62 38.9531 129.111 38.3427C128.806 37.8338 128.272 37.8083 127.508 38.2667C126.745 38.7245 125.956 39.462 125.143 40.4791C124.329 41.4963 123.515 42.7427 122.701 44.2177C121.888 45.6927 121.277 47.1926 120.87 48.7187H120.871ZM151.084 67.64C148.54 67.3348 146.531 66.877 145.056 66.2666C143.581 65.6567 142.437 64.9697 141.623 64.2067C140.809 63.4437 140.3 62.5791 140.097 61.6124C139.893 60.6463 139.842 59.603 139.944 58.4843C140.351 55.9416 140.834 53.5759 141.394 51.389C141.953 49.2015 142.64 47.1166 143.454 45.1327C144.267 43.1495 145.158 41.1656 146.124 39.1817C147.09 37.1984 148.184 35.0364 149.405 32.6968C149.914 31.8833 150.702 31.5776 151.77 31.7812C152.838 31.9849 153.525 32.188 153.83 32.3916C154.033 32.4938 154.313 32.6203 154.669 32.7729C155.025 32.9255 155.458 33.2052 155.966 33.6119C156.373 33.9171 156.881 34.5275 157.492 35.4432C158.102 36.3588 158.051 37.4265 157.339 38.6473C156.83 39.4608 156.272 40.4786 155.661 41.6994C155.05 42.9197 154.44 44.2426 153.829 45.6666C153.626 46.1755 153.422 46.6582 153.219 47.116C153.015 47.5738 152.812 48.0572 152.608 48.5655C152.914 48.1587 153.397 47.3702 154.059 46.2004C154.719 45.0306 155.61 43.7338 156.729 42.3093C157.848 40.8847 159.221 39.4353 160.849 37.9603C162.476 36.4853 164.409 35.2389 166.647 34.2217C166.851 34.0181 167.105 33.891 167.41 33.8405C167.715 33.7895 167.969 33.6624 168.173 33.4593C168.987 33.1541 169.877 32.9504 170.843 32.8489C171.81 32.7473 172.649 33.103 173.361 33.9171C174.48 35.0358 174.862 36.2822 174.505 37.6557C174.15 39.0291 173.717 40.1734 173.208 41.089C172.802 42.0046 172.344 42.9203 171.835 43.8353C171.326 44.7509 170.919 45.6161 170.614 46.4296C170.31 47.2431 170.156 47.9557 170.156 48.5661C170.156 49.1765 170.462 49.6343 171.072 49.9395C171.276 50.2447 171.428 50.601 171.53 51.0078C171.632 51.4145 171.428 51.7197 170.92 51.9234C170.31 52.1265 169.546 52.3557 168.631 52.6098C167.715 52.864 166.724 53.0172 165.655 53.0676C164.588 53.1181 163.57 53.0421 162.604 52.839C161.638 52.6354 160.849 52.1775 160.238 51.4656C159.831 50.9567 159.475 50.4229 159.171 49.8635C158.865 49.3041 159.222 48.0067 160.238 45.9724V45.6672C160.035 45.565 159.882 45.565 159.78 45.6672C158.865 46.5828 157.899 47.8286 156.881 49.4051C155.864 50.9822 154.948 52.6858 154.135 54.5171C153.321 56.3484 152.736 58.2046 152.38 60.0863C152.024 61.9681 152.1 63.6723 152.608 65.1983C152.711 65.7072 152.66 66.165 152.456 66.5718C152.151 67.0807 151.845 67.4363 151.54 67.64C151.337 67.7416 151.185 67.7416 151.082 67.64H151.084ZM196.555 46.5822C197.268 44.9546 198.183 43.0729 199.302 40.9364C199.403 40.6312 199.454 40.3265 199.454 40.0208C199.454 39.5119 198.945 39.4103 197.928 39.7155C197.928 39.7155 197.623 39.9186 197.013 40.326C196.911 40.326 196.86 40.3509 196.86 40.402C196.86 40.4525 196.809 40.478 196.707 40.478C196.402 40.6817 196.097 40.9103 195.792 41.165C195.487 41.4192 195.13 41.7499 194.724 42.1566C194.317 42.4619 193.986 42.7671 193.732 43.0723C193.478 43.3775 193.198 43.6827 192.893 43.9879C192.079 44.9035 191.545 45.7681 191.29 46.5822C191.036 47.3957 190.858 47.9046 190.756 48.1083V48.4129C190.451 49.9389 190.502 51.2613 190.909 52.3806C191.316 53.4999 191.952 54.4405 192.816 55.2035C193.681 55.9666 194.621 56.6019 195.639 57.1108C196.656 57.6197 197.572 57.9249 198.385 58.0265C200.013 58.3317 201.692 58.3317 203.421 58.0265C204.133 58.0265 204.82 58.2301 205.481 58.6369C206.142 59.0436 206.117 59.9593 205.405 61.3832C204.489 63.1129 203.167 64.715 201.438 66.19C199.708 67.665 197.674 68.504 195.334 68.7077H195.029H194.876C194.164 68.8092 193.528 68.8092 192.969 68.7077C192.41 68.6061 191.876 68.4535 191.367 68.2499L189.993 67.792C187.551 66.6733 186.127 64.715 185.72 61.9176C185.314 59.1202 185.517 56.0936 186.331 52.8384C185.314 54.6697 184.424 56.7041 183.66 58.9421C182.897 61.1801 182.262 63.6218 181.753 66.2666C181.55 67.3859 181.321 68.2249 181.067 68.7843C180.813 69.3436 180.38 69.5218 179.769 69.3187C179.465 69.3187 179.006 69.2427 178.396 69.0901C177.786 68.9375 177.125 68.6578 176.413 68.251C175.701 67.8443 174.988 67.2594 174.277 66.4963C173.565 65.7333 172.954 64.7417 172.445 63.5208C172.14 62.5037 171.988 61.3339 171.988 60.0115C171.988 58.6891 172.09 57.3412 172.293 55.9683C172.496 54.5949 172.802 53.2725 173.208 52.0011C173.615 50.7292 173.971 49.6361 174.277 48.7198C174.378 48.3131 174.786 47.0667 175.497 44.9819C176.21 42.8965 177.1 40.4043 178.167 37.5048C179.235 34.6059 180.456 31.5033 181.829 28.197C183.203 24.8908 184.652 21.8137 186.178 18.9653C187.704 16.1168 189.23 13.7007 190.756 11.7174C192.282 9.73408 193.757 8.53877 195.181 8.13143C195.283 8.13143 195.486 8.08037 195.791 7.97883C195.994 7.97883 196.223 7.9533 196.478 7.90282C196.732 7.85175 197.062 7.82622 197.469 7.82622C198.792 7.82622 200.267 8.1825 201.894 8.89446C203.522 9.60643 204.59 11.4377 205.099 14.3877V14.6929C205.099 14.7944 204.997 14.947 204.793 15.1507C204.59 15.4559 204.284 15.6085 203.878 15.6085C202.351 15.8122 200.724 16.8549 198.995 18.7366C197.266 20.6184 195.51 23.0856 193.73 26.1371C191.95 29.1887 190.144 32.7241 188.314 36.7423C186.482 40.7606 184.651 45.0074 182.82 49.484C183.329 48.8736 184.27 47.7032 185.643 45.9747C187.017 44.2455 188.619 42.4653 190.45 40.6341C192.281 38.8028 194.265 37.1247 196.401 35.5987C198.538 34.0726 200.674 33.208 202.81 33.005C203.522 32.9028 204.234 32.9028 204.946 33.005C205.557 33.1065 206.218 33.2336 206.93 33.3862C207.642 33.5388 208.303 33.8695 208.914 34.3778C209.727 34.9877 210.21 35.8273 210.363 36.8955C210.516 37.9632 210.465 39.0314 210.21 40.0997C209.956 41.1679 209.574 42.1851 209.066 43.1518C208.557 44.1179 208.099 44.8554 207.693 45.3643C206.981 46.1784 206.116 46.7882 205.099 47.1955C204.081 47.6029 203.039 47.857 201.971 47.9586C200.903 48.0607 199.961 48.0607 199.148 47.9586C198.334 47.857 197.774 47.806 197.469 47.806C196.96 47.806 196.656 47.6533 196.554 47.3481C196.452 47.0435 196.452 46.7888 196.554 46.5851L196.555 46.5822ZM241.417 47.04C240.297 49.3796 239.382 51.8213 238.67 54.3639C237.856 57.0087 237.475 59.4759 237.526 61.7644C237.577 64.0535 238.314 66.2149 239.738 68.2493L240.043 68.8597C240.246 69.2665 240.246 69.6227 240.043 69.9279C239.84 70.5384 239.178 70.7414 238.059 70.5384C236.127 70.5384 234.448 70.1821 233.024 69.4701C231.803 68.9612 230.684 68.0462 229.667 66.7238C228.65 65.4008 228.141 63.5191 228.141 61.0774C226.411 63.3154 224.377 65.2482 222.037 66.8758C219.697 68.5034 217.053 69.0123 214.103 68.4019C212.068 67.9951 210.618 67.1561 209.754 65.8842C208.889 64.6129 208.406 63.1123 208.304 61.3826C208.202 59.6535 208.431 57.7717 208.99 55.7368C209.549 53.7024 210.262 51.7186 211.127 49.7858C211.991 47.853 212.932 46.0478 213.949 44.3691C214.967 42.6905 215.882 41.3426 216.696 40.326C218.12 38.3932 219.926 36.5108 222.112 34.6796C224.3 32.8483 226.614 32.0853 229.056 32.3911C229.462 32.4932 229.997 32.6197 230.658 32.7723C231.319 32.9249 231.955 33.2556 232.566 33.7639C233.685 34.5774 234.346 35.6201 234.549 36.892C234.753 38.1634 234.652 39.5113 234.244 40.9352V41.0878H234.397C235.313 40.3753 236.381 40.2743 237.602 40.7826C237.703 40.8842 237.805 40.9352 237.906 40.9352C239.635 41.8509 240.755 43.0717 241.264 44.5978C241.67 45.3097 241.721 46.1238 241.416 47.0394L241.417 47.04ZM229.972 50.702C230.278 49.5833 230.633 48.464 231.041 47.3447C231.447 46.2254 231.905 45.1066 232.414 43.9879C231.905 44.4968 231.371 44.9291 230.812 45.2848C230.253 45.641 229.566 45.8192 228.752 45.8192C227.837 45.8192 227.328 45.6666 227.226 45.3614C227.022 44.9546 227.022 44.4457 227.226 43.8353C227.226 43.8353 227.379 43.6827 227.684 43.3775L227.837 43.2249C228.243 42.716 228.574 41.9025 228.828 40.7832C229.082 39.6639 228.752 38.7993 227.837 38.1889C227.023 37.68 226.056 37.7822 224.938 38.4941C223.818 39.2067 222.7 40.2749 221.58 41.6988C220.462 43.1228 219.444 44.7504 218.529 46.5816C217.613 48.4129 217.003 50.142 216.698 51.7696C216.392 53.3972 216.494 54.8217 217.003 56.042C217.512 57.2628 218.63 57.9243 220.36 58.0259C221.479 58.1274 222.878 57.6446 224.556 56.5764C226.235 55.5082 227.786 54.3639 229.21 53.1431C229.413 52.7363 229.541 52.3296 229.591 51.9228C229.642 51.5161 229.769 51.1087 229.972 50.702ZM251.03 69.3181C250.725 69.3181 250.191 69.2421 249.428 69.0895C248.665 68.9369 247.876 68.6572 247.063 68.2504C246.248 67.8437 245.409 67.2588 244.545 66.4958C243.68 65.7327 243.044 64.7411 242.638 63.5202C242.231 62.5031 242.027 61.3333 242.027 60.0109C242.027 58.6885 242.154 57.3406 242.408 55.9677C242.663 54.5943 242.968 53.2719 243.324 52.0006C243.68 50.7287 244.011 49.6355 244.316 48.7193C244.417 48.3125 244.825 47.0661 245.536 44.9813C246.248 42.8959 247.139 40.4037 248.207 37.5042C249.275 34.6053 250.496 31.5027 251.869 28.1964C253.242 24.8902 254.692 21.8131 256.218 18.9647C257.744 16.1162 259.295 13.7001 260.872 11.7168C262.448 9.7335 263.949 8.53819 265.373 8.13085C265.476 8.13085 265.628 8.07979 265.831 7.97825C266.035 7.97825 266.264 7.95272 266.518 7.90224C266.772 7.85117 267.103 7.82564 267.51 7.82564C268.222 7.82564 269.036 7.8767 269.952 7.97825C270.867 8.07979 271.757 8.35947 272.622 8.81729C273.487 9.2751 274.275 9.93659 274.988 10.8012C275.7 11.6657 276.157 12.861 276.361 14.3871V14.6923C276.361 14.896 276.31 15.048 276.208 15.1501C276.005 15.3538 275.827 15.4553 275.675 15.4553C275.522 15.4553 275.344 15.5064 275.14 15.6079C274.021 15.9132 272.648 17.0069 271.02 18.8887C269.393 20.771 267.638 23.2376 265.756 26.2892C263.874 29.3407 261.941 32.8506 259.957 36.8178C257.974 40.7849 256.066 45.0068 254.236 49.4829C254.642 48.8724 255.532 47.7021 256.906 45.9735C258.279 44.2444 259.881 42.4642 261.712 40.6329C263.543 38.8017 265.552 37.1236 267.739 35.5975C269.927 34.0715 272.038 33.2069 274.071 33.0038C275.394 32.8001 276.615 32.8512 277.734 33.1564C278.65 33.3601 279.514 33.7668 280.328 34.3773C281.142 34.9871 281.651 36.0043 281.854 37.4288C281.956 38.7512 281.422 40.5824 280.252 42.922C279.082 45.2616 278.039 47.8559 277.124 50.7043C276.107 53.7564 275.598 56.7319 275.598 59.6308C275.598 62.5303 276.26 64.8444 277.582 66.5741C277.786 66.8793 277.963 67.2356 278.116 67.6423C278.269 68.0491 278.091 68.3543 277.582 68.558C276.971 68.7611 276.234 68.9903 275.369 69.2444C274.505 69.4986 273.538 69.6512 272.471 69.7022C271.402 69.7533 270.257 69.6773 269.037 69.4736C267.816 69.2699 266.595 68.8127 265.375 68.1002C264.866 67.7949 264.561 67.4392 264.459 67.0319C264.357 66.6252 264.255 66.3199 264.154 66.1163C264.052 65.2006 264.027 63.9798 264.078 62.4538C264.129 60.9277 264.357 59.097 264.764 56.9605C265.171 54.8241 265.807 52.4079 266.671 49.7121C267.536 47.0162 268.833 44.0918 270.563 40.9381C270.766 40.6329 270.868 40.3283 270.868 40.0225C270.868 39.5136 270.359 39.4121 269.342 39.7173C268.935 39.9204 268.019 40.5819 266.595 41.7012C265.171 42.8199 263.569 44.473 261.789 46.6605C260.008 48.8475 258.305 51.5689 256.677 54.8241C255.049 58.0793 253.828 61.8938 253.014 66.2683C252.709 68.6085 252.048 69.6256 251.031 69.3204L251.03 69.3181ZM1.31555 140.993C1.11247 140.484 0.908798 139.925 0.705131 139.315C0.39992 138.298 0.247314 136.975 0.247314 135.348C0.247314 134.738 0.654069 134.102 1.46816 133.44C2.28167 132.779 3.14682 132.322 4.06245 132.067C4.97808 131.813 5.81712 131.787 6.58015 131.991C7.34318 132.194 7.7244 132.805 7.7244 133.822V134.585C7.82653 137.331 8.79264 139.646 10.6233 141.528C12.4546 143.41 14.8963 144.453 17.9478 144.656C21.3051 144.962 24.2801 144.402 26.8744 142.978C29.4686 141.553 31.6301 139.723 33.3598 137.485C35.0889 135.247 36.4119 132.857 37.327 130.313C38.2426 127.769 38.7004 125.531 38.7004 123.599C38.7004 121.259 38.2426 119.25 37.327 117.572C36.4113 115.893 35.3941 114.85 34.2748 114.443C33.766 114.546 33.3087 114.596 32.902 114.596C32.4952 114.596 32.0879 114.596 31.6811 114.596C28.3244 114.596 26.6457 113.884 26.6457 112.46C26.6457 111.951 27.002 111.341 27.714 110.628C28.4259 109.916 29.4942 109.56 30.9187 109.56C31.4276 109.56 31.9359 109.586 32.4447 109.636C32.9536 109.687 33.4625 109.763 33.9708 109.865C34.2754 109.662 35.2932 108.975 37.0223 107.805C38.7521 106.636 40.5578 105.084 42.4395 103.151C44.3213 101.218 46.051 98.9299 47.6275 96.2846C49.2041 93.6398 49.9926 90.7409 49.9926 87.5872C49.9926 82.9075 47.2457 80.568 41.7531 80.568C39.8203 80.568 37.5823 81.1529 35.039 82.3226C32.4958 83.4924 30.0036 85.069 27.5619 87.0528C25.1208 89.0367 22.8822 91.3252 20.8479 93.9195C18.8135 96.5138 17.389 99.1835 16.5755 101.93C16.4734 102.642 16.2703 103.202 15.9651 103.609C15.3553 104.728 14.7448 105.288 14.1338 105.288C13.9302 105.288 13.4729 104.931 12.7604 104.219C12.0484 103.508 11.2854 102.541 10.4719 101.321C9.65779 100.1 8.92029 98.7007 8.25939 97.1242C7.59791 95.5477 7.26775 93.945 7.26775 92.3174C7.26775 91.1987 7.47141 90.232 7.87817 89.4185C7.97971 89.4185 8.64119 88.6555 9.86146 87.1294C11.0823 85.6034 13.0145 83.9508 15.6599 82.17C18.3047 80.3898 21.6875 78.7367 25.8067 77.2106C29.927 75.6846 34.9369 74.9221 40.8369 74.9221C42.5666 74.9221 44.601 75.1258 46.9405 75.5326C49.2801 75.9393 51.5187 76.7023 53.6546 77.8216C55.7911 78.9409 57.5968 80.5424 59.0718 82.6278C60.5468 84.7133 61.2843 87.4346 61.2843 90.7919C61.2843 91.6055 61.2332 92.47 61.1317 93.3857C61.0295 94.3013 60.8265 95.3185 60.5212 96.4378C59.8093 98.8795 58.6395 101.117 57.0119 103.152C55.5874 104.983 53.5786 106.789 50.9849 108.568C48.3906 110.349 44.9572 111.748 40.6849 112.765C40.7864 112.765 41.4479 112.993 42.6681 113.451C43.889 113.909 45.1858 114.698 46.5593 115.816C47.9327 116.936 49.1785 118.411 50.2978 120.241C51.4171 122.073 51.9765 124.412 51.9765 127.261C51.9765 131.025 51.1624 134.458 49.5348 137.561C47.9072 140.663 45.6947 143.333 42.8968 145.572C40.0994 147.81 36.8187 149.539 33.0546 150.76C29.2905 151.98 25.3233 152.591 21.1525 152.591C19.5249 152.591 17.7702 152.438 15.8879 152.133C14.0062 151.828 12.1749 151.243 10.3947 150.378C8.61392 149.513 6.91031 148.318 5.28271 146.792C3.65512 145.266 2.33273 143.333 1.31555 140.994V140.993ZM8.94524 130.923C8.74158 130.821 8.66498 130.49 8.71605 129.931C8.76711 129.372 8.86865 128.66 9.02126 127.795C9.17386 126.93 9.40248 126.04 9.70769 125.125C10.0123 124.209 10.3181 123.344 10.6233 122.531C11.3359 120.395 12.2765 117.978 13.4462 115.283C14.616 112.587 15.8879 109.916 17.2614 107.272C18.6348 104.626 20.0843 102.134 21.6103 99.7945C23.1364 97.4549 24.6114 95.5221 26.0353 93.9961C26.0353 93.9961 26.1113 93.869 26.2639 93.6149C26.4165 93.3607 26.7217 93.0805 27.1796 92.7752C27.6374 92.47 28.3244 92.1904 29.2394 91.9362C30.1551 91.6821 31.3759 91.555 32.902 91.555C33.2066 91.555 33.5118 91.631 33.8176 91.7836C34.1228 91.9362 34.2754 92.318 34.2754 92.9284C34.2754 93.4373 33.9197 94.2003 33.2072 95.2169C32.4952 96.2341 31.5541 97.8368 30.3843 100.024C29.2145 102.211 27.841 105.161 26.2645 108.874C24.6874 112.587 22.9838 117.394 21.1525 123.294C21.051 123.803 20.8473 124.692 20.5421 125.964C20.2375 127.236 19.8812 128.533 19.4739 129.855C19.0671 131.178 18.6093 132.348 18.101 133.365C17.5921 134.383 17.0832 134.891 16.5749 134.891C15.7614 134.891 14.5916 134.611 13.0656 134.052C11.5395 133.492 10.3698 132.704 9.55625 131.687L8.94641 130.924L8.94524 130.923ZM88.5977 123.751C89.2082 124.26 89.1066 125.073 88.2925 126.192C87.479 127.413 86.1311 129.142 84.2488 131.38C82.367 133.618 80.129 135.729 77.5347 137.713C74.941 139.696 72.1181 141.222 69.066 142.29C66.0145 143.358 62.9624 143.384 59.9108 142.366C57.0624 141.451 55.1806 139.849 54.265 137.56C53.3494 135.271 53.1208 132.753 53.578 130.006C54.0364 127.26 55.028 124.463 56.5535 121.614C58.0796 118.765 59.8598 116.223 61.8941 113.984C63.115 112.662 64.4629 111.416 65.9379 110.246C67.4129 109.076 68.9644 108.109 70.592 107.347C72.2191 106.584 73.8472 106.177 75.4748 106.126C77.1019 106.075 78.6279 106.507 80.0524 107.424C80.9681 108.034 81.5785 108.873 81.8837 109.941C82.1883 111.01 82.2394 112.179 82.0363 113.451C81.8332 114.723 81.4009 116.019 80.7394 117.342C80.0785 118.664 79.29 119.936 78.3743 121.156C77.6618 122.174 76.9498 122.988 76.2379 123.598C75.8311 124.005 75.4748 124.361 75.1696 124.666C74.865 124.972 74.4577 125.226 73.9494 125.429C72.0166 126.854 70.1093 127.794 68.2275 128.252C66.3452 128.71 64.7942 129.041 63.5734 129.244C63.4712 131.38 63.878 132.83 64.7942 133.593C65.7098 134.356 66.9051 134.712 68.3801 134.661C69.8551 134.61 71.5338 134.178 73.4161 133.364C75.2979 132.55 77.1036 131.609 78.8327 130.541C80.5619 129.473 82.139 128.328 83.5629 127.107C84.9874 125.887 86.0551 124.818 86.7676 123.903C86.9707 123.7 87.2504 123.573 87.6067 123.522C87.9624 123.471 88.2931 123.548 88.5983 123.751H88.5977ZM64.1832 123.14C63.9795 123.548 63.878 123.929 63.878 124.285C63.878 124.641 63.7764 125.023 63.5734 125.429C64.489 124.92 65.2775 124.438 65.9384 123.98C66.5999 123.522 67.1848 123.039 67.6931 122.53L68.7608 121.462C69.8801 120.343 70.592 119.478 70.8973 118.868C71.6098 117.749 72.1692 116.604 72.5759 115.435C72.9827 114.265 72.9322 113.375 72.4233 112.764C72.1181 112.255 71.5843 112.23 70.8207 112.688C70.0576 113.146 69.2691 113.884 68.4556 114.901C67.6421 115.918 66.828 117.164 66.0145 118.639C65.201 120.114 64.59 121.614 64.1832 123.14Z" fill="#29A383"/>
<path d="M94.3954 142.062C91.8522 141.757 89.8428 141.299 88.3678 140.689C86.8928 140.079 85.7485 139.392 84.9344 138.629C84.1204 137.866 83.6121 137.002 83.4084 136.035C83.2047 135.069 83.1542 134.025 83.2558 132.907C83.6625 130.364 84.1459 127.998 84.7052 125.811C85.2646 123.624 85.951 121.539 86.7651 119.555C87.5786 117.572 88.4687 115.588 89.4354 113.604C90.4015 111.62 91.4953 109.458 92.7167 107.119C93.2256 106.305 94.0136 105.999 95.0818 106.203C96.1501 106.407 96.8365 106.61 97.1417 106.814C97.3448 106.916 97.6251 107.042 97.9808 107.195C98.337 107.347 98.7693 107.627 99.2776 108.034C99.6844 108.339 100.193 108.949 100.804 109.865C101.414 110.781 101.363 111.848 100.651 113.069C100.142 113.883 99.5834 114.9 98.9724 116.121C98.362 117.342 97.7516 118.665 97.1411 120.088C96.9375 120.597 96.7338 121.08 96.5307 121.538C96.3271 121.996 96.124 122.479 95.9203 122.987C96.2255 122.581 96.7089 121.792 97.3703 120.622C98.0312 119.453 98.9213 118.155 100.041 116.731C101.159 115.307 102.533 113.857 104.16 112.382C105.788 110.907 107.721 109.661 109.959 108.643C110.163 108.439 110.417 108.312 110.722 108.262C111.026 108.211 111.281 108.084 111.485 107.881C112.299 107.575 113.189 107.372 114.155 107.27C115.122 107.168 115.961 107.524 116.673 108.338C117.792 109.457 118.173 110.704 117.817 112.076C117.461 113.45 117.029 114.594 116.52 115.51C116.114 116.425 115.656 117.341 115.147 118.256C114.638 119.172 114.231 120.036 113.926 120.85C113.621 121.664 113.468 122.376 113.468 122.987C113.468 123.597 113.773 124.055 114.384 124.36C114.587 124.665 114.74 125.022 114.842 125.429C114.944 125.835 114.74 126.14 114.232 126.344C113.621 126.547 112.858 126.776 111.943 127.031C111.027 127.285 110.035 127.438 108.967 127.488C107.9 127.539 106.882 127.463 105.916 127.26C104.95 127.056 104.161 126.599 103.55 125.886C103.143 125.377 102.787 124.844 102.482 124.284C102.177 123.725 102.533 122.427 103.55 120.393V120.088C103.347 119.986 103.194 119.986 103.092 120.088C102.177 121.004 101.21 122.249 100.193 123.826C99.1755 125.403 98.2604 127.107 97.4469 128.938C96.6334 130.77 96.0485 132.626 95.6923 134.508C95.336 136.389 95.412 138.094 95.9209 139.62C96.023 140.129 95.9719 140.586 95.7683 140.993C95.4631 141.502 95.1579 141.858 94.8526 142.061C94.6496 142.163 94.4969 142.163 94.3948 142.061L94.3954 142.062ZM159.246 108.34C160.366 109.459 160.747 110.705 160.391 112.078C160.035 113.452 159.653 114.596 159.246 115.511C158.433 116.936 157.67 118.461 156.958 120.089C156.653 120.903 156.322 121.742 155.966 122.607C155.61 123.472 155.28 124.311 154.975 125.124C154.059 128.177 153.601 131.152 153.601 134.051C153.601 136.95 154.263 139.265 155.585 140.994C155.788 141.299 155.941 141.655 156.043 142.062C156.145 142.469 155.992 142.774 155.585 142.978C154.975 143.181 154.212 143.41 153.296 143.664C152.38 143.918 151.389 144.071 150.32 144.122C149.252 144.173 148.108 144.097 146.887 143.893C145.666 143.69 144.445 143.232 143.225 142.52C142.513 141.91 142.157 141.248 142.157 140.536C141.954 139.112 141.954 136.925 142.157 133.975C142.361 131.025 143.327 127.363 145.056 122.989C145.056 122.887 145.107 122.785 145.208 122.683H145.056C143.937 124.209 143.072 125.71 142.462 127.185C141.852 128.66 141.444 130.033 141.241 131.305C141.038 132.577 140.91 133.645 140.86 134.509C140.809 135.374 140.733 135.959 140.631 136.264C140.428 136.874 139.538 137.078 137.96 136.874C136.384 136.671 134.731 136.06 133.001 135.043C132.085 134.534 131.577 133.695 131.475 132.525C131.374 131.355 131.475 130.16 131.78 128.939C132.187 127.514 132.747 125.938 133.459 124.209C132.239 125.735 131.298 127.26 130.636 128.786C129.975 130.312 129.492 131.762 129.187 133.135C128.881 134.509 128.678 135.78 128.576 136.95C128.474 138.12 128.424 139.01 128.424 139.62C128.424 140.129 128.322 140.587 128.118 140.994C128.016 141.503 127.762 141.858 127.355 142.062C127.152 142.163 126.999 142.163 126.897 142.062C124.354 141.757 122.345 141.07 120.87 140.002C119.395 138.934 118.301 137.714 117.589 136.34C116.877 134.967 116.47 133.568 116.368 132.144C116.267 130.719 116.267 129.448 116.368 128.329C116.47 127.21 116.623 126.269 116.826 125.506C117.03 124.743 117.233 124.107 117.437 123.599C117.437 123.497 117.462 123.396 117.513 123.294C117.564 123.192 117.589 123.09 117.589 122.989C119.318 118.207 120.971 114.418 122.547 111.62C124.124 108.823 125.014 107.322 125.218 107.119C125.727 106.305 126.489 105.999 127.506 106.203C128.523 106.407 129.236 106.61 129.643 106.814C129.846 106.916 130.1 107.042 130.406 107.195C130.711 107.347 131.118 107.627 131.626 108.034C132.135 108.339 132.695 108.949 133.305 109.865C133.915 110.781 133.864 111.848 133.152 113.069C132.643 113.883 132.084 114.9 131.473 116.121C130.863 117.342 130.253 118.665 129.642 120.088C129.438 120.597 129.21 121.131 128.955 121.691C128.701 122.25 128.472 122.835 128.269 123.446C129.082 122.123 129.947 120.852 130.863 119.631C131.677 118.512 132.542 117.342 133.457 116.122C134.373 114.901 135.339 113.731 136.356 112.613C136.865 112.002 137.526 111.493 138.34 111.086C139.052 110.68 139.892 110.349 140.858 110.095C141.824 109.841 143.02 109.815 144.444 110.018H144.596H144.749C145.562 110.12 146.097 110.399 146.351 110.857C146.606 111.315 146.479 111.798 145.97 112.307C145.156 113.223 144.216 114.443 143.147 115.969C142.079 117.495 141.291 118.818 140.782 119.936C141.799 118.614 142.867 117.393 143.986 116.274C145.004 115.257 146.097 114.189 147.267 113.07C148.437 111.951 149.683 110.883 151.006 109.866C151.311 109.663 151.642 109.434 151.997 109.179C152.353 108.925 152.684 108.696 152.989 108.492C153.599 108.085 154.566 107.704 155.888 107.348C157.211 106.992 158.33 107.322 159.245 108.34L159.246 108.34ZM190.68 121.463C189.561 123.803 188.646 126.244 187.933 128.788C187.12 131.432 186.739 133.899 186.789 136.188C186.84 138.477 187.578 140.639 189.002 142.673L189.307 143.283C189.51 143.69 189.51 144.046 189.307 144.352C189.103 144.962 188.442 145.165 187.323 144.962C185.39 144.962 183.711 144.606 182.287 143.894C181.067 143.385 179.948 142.47 178.93 141.147C177.913 139.825 177.404 137.943 177.404 135.502C175.675 137.74 173.64 139.672 171.3 141.3C168.961 142.928 166.316 143.437 163.366 142.826C161.331 142.419 159.882 141.58 159.017 140.308C158.152 139.037 157.669 137.537 157.568 135.807C157.466 134.078 157.694 132.196 158.254 130.161C158.813 128.127 159.526 126.143 160.391 124.21C161.255 122.277 162.196 120.471 163.214 118.793C164.231 117.115 165.146 115.766 165.96 114.75C167.384 112.817 169.19 110.934 171.376 109.104C173.564 107.273 175.878 106.509 178.32 106.815C178.726 106.917 179.261 107.043 179.922 107.196C180.583 107.349 181.219 107.679 181.83 108.188C182.949 109.001 183.61 110.044 183.814 111.316C184.017 112.587 183.916 113.935 183.508 115.359V115.511H183.661C184.577 114.799 185.645 114.698 186.866 115.206C186.967 115.308 187.069 115.359 187.17 115.359C188.899 116.274 190.019 117.495 190.528 119.021C190.934 119.733 190.985 120.547 190.68 121.463ZM179.236 125.125C179.541 124.006 179.897 122.887 180.304 121.768C180.711 120.649 181.169 119.53 181.678 118.411C181.169 118.92 180.635 119.352 180.076 119.708C179.516 120.064 178.829 120.242 178.016 120.242C177.1 120.242 176.591 120.089 176.49 119.784C176.286 119.377 176.286 118.868 176.49 118.258C176.49 118.258 176.642 118.105 176.947 117.8L177.1 117.647C177.507 117.138 177.838 116.325 178.092 115.206C178.346 114.086 178.016 113.222 177.1 112.611C176.286 112.103 175.319 112.205 174.201 112.916C173.082 113.629 171.963 114.697 170.844 116.121C169.725 117.545 168.708 119.172 167.792 121.004C166.877 122.835 166.266 124.563 165.961 126.192C165.656 127.819 165.758 129.244 166.266 130.464C166.775 131.685 167.894 132.346 169.624 132.448C170.743 132.55 172.141 132.067 173.819 130.998C175.498 129.93 177.05 128.786 178.473 127.565C178.677 127.158 178.804 126.751 178.855 126.345C178.906 125.938 179.033 125.531 179.236 125.124V125.125ZM202.124 142.062C199.581 141.757 197.572 141.299 196.097 140.689C194.622 140.079 193.477 139.392 192.663 138.629C191.85 137.866 191.341 137.002 191.137 136.035C190.934 135.069 190.883 134.025 190.985 132.907C191.392 130.364 191.875 127.998 192.435 125.811C192.994 123.624 193.681 121.539 194.495 119.555C195.309 117.572 196.199 115.588 197.165 113.604C198.131 111.62 199.225 109.458 200.446 107.119C200.955 106.305 201.743 105.999 202.811 106.203C203.879 106.407 204.566 106.61 204.871 106.814C205.074 106.916 205.353 107.042 205.71 107.195C206.066 107.347 206.498 107.627 207.007 108.034C207.414 108.339 207.923 108.949 208.533 109.865C209.144 110.781 209.093 111.848 208.381 113.069C207.872 113.883 207.312 114.9 206.702 116.121C206.092 117.342 205.482 118.665 204.871 120.088C204.668 120.597 204.464 121.08 204.26 121.538C204.057 121.996 203.854 122.479 203.65 122.987C203.955 122.581 204.591 121.792 205.557 120.622C206.523 119.453 207.77 118.155 209.295 116.731C210.821 115.307 212.55 113.857 214.483 112.382C216.416 110.907 218.501 109.661 220.739 108.643C220.942 108.439 221.197 108.312 221.502 108.262C221.808 108.211 222.062 108.084 222.265 107.881C223.079 107.575 223.969 107.372 224.936 107.27C225.902 107.168 226.741 107.524 227.453 108.338C228.573 109.457 228.954 110.704 228.598 112.076C228.241 113.45 227.809 114.594 227.3 115.51C226.996 116.222 226.665 116.959 226.309 117.722C225.952 118.485 225.571 119.274 225.164 120.088C224.859 120.901 224.528 121.741 224.173 122.606C223.816 123.471 223.486 124.31 223.181 125.123C222.265 128.175 221.783 131.151 221.732 134.05C221.681 136.949 222.367 139.263 223.791 140.993C223.995 141.298 224.148 141.654 224.25 142.061C224.351 142.468 224.148 142.773 223.639 142.976C223.029 143.179 222.292 143.409 221.427 143.663C220.562 143.917 219.596 144.07 218.527 144.121C217.459 144.172 216.315 144.096 215.094 143.892C213.873 143.688 212.652 143.231 211.432 142.519C210.923 142.214 210.618 141.858 210.517 141.451C210.414 141.044 210.313 140.738 210.211 140.535C210.109 139.314 210.135 137.407 210.287 134.813C210.44 132.219 211.126 129.041 212.347 125.276C212.55 124.564 212.805 123.801 213.11 122.987C213.415 122.173 213.823 121.309 214.331 120.393V120.088C214.127 119.986 213.975 119.986 213.873 120.088C212.754 120.901 211.61 121.843 210.44 122.911C209.27 123.979 208.227 125.225 207.312 126.649C205.887 128.684 204.87 131.074 204.26 133.821C204.057 135.041 203.903 136.16 203.802 137.178C203.7 138.195 203.649 139.009 203.649 139.619C203.649 140.331 203.599 140.789 203.497 140.993C203.191 141.501 202.886 141.857 202.581 142.061C202.377 142.162 202.225 142.162 202.123 142.061L202.124 142.062ZM263.313 124.667C262.397 125.787 261.558 126.702 260.795 127.414C260.032 128.126 259.219 128.66 258.353 129.016C257.489 129.372 256.497 129.601 255.378 129.703C254.259 129.805 252.886 129.856 251.258 129.856C251.36 134.637 250.724 139.139 249.351 143.36C247.977 147.581 246.223 151.117 244.086 153.965C241.95 156.814 239.534 158.772 236.838 159.84C234.143 160.908 231.523 160.679 228.98 159.154C227.251 158.034 226.132 156.28 225.623 153.889C225.114 151.499 225.063 148.727 225.47 145.573C225.673 141.606 226.309 137.664 227.377 133.748C228.445 129.831 229.615 126.219 230.887 122.914C232.159 119.607 233.404 116.733 234.625 114.292C235.846 111.85 236.761 110.07 237.372 108.951C236.863 108.748 236.405 108.62 235.998 108.57C235.591 108.519 235.134 108.392 234.625 108.189C225.774 105.34 218.526 103.535 212.88 102.772C207.235 102.009 203.038 101.678 200.292 101.78C198.563 101.78 197.8 101.501 198.003 100.941C198.206 100.382 198.613 99.8477 199.224 99.3388C200.953 98.1185 203.242 96.8971 206.09 95.6768C208.939 94.456 212.144 93.9982 215.704 94.3034C218.247 94.507 220.612 94.9904 222.799 95.7528C224.987 96.5159 227.123 97.3804 229.208 98.3471C231.294 99.3138 233.277 100.305 235.159 101.323C237.041 102.34 238.948 103.255 240.881 104.069C241.085 103.764 241.797 102.823 243.017 101.246C244.238 99.6695 245.789 97.9653 247.671 96.1346C249.553 94.3034 251.664 92.5487 254.003 90.87C256.343 89.1914 258.785 88.0982 261.328 87.5893C262.955 87.1826 264.659 87.157 266.44 87.5127C268.22 87.869 269.721 89.0643 270.941 91.0987C271.959 92.8278 272.315 94.7101 272.009 96.7445C271.704 98.7788 270.916 100.737 269.644 102.619C268.373 104.501 266.719 106.154 264.685 107.578C262.65 109.003 260.412 109.918 257.97 110.325C254.41 110.936 250.748 111.037 246.984 110.63L246.526 111.546C246.323 111.851 246.119 112.233 245.916 112.69C245.712 113.148 245.509 113.631 245.305 114.14H245.153V114.292C244.034 116.633 242.737 119.913 241.262 124.135C239.787 128.356 238.591 133.468 237.676 139.47C237.574 139.979 237.498 140.487 237.446 140.996C237.395 141.505 237.319 142.014 237.218 142.522C237.014 144.251 236.963 145.675 237.065 146.794C237.167 147.914 237.523 148.626 238.133 148.931C239.049 149.44 240.117 148.931 241.338 147.405C242.558 145.879 243.677 143.844 244.695 141.301C244.899 140.792 245.076 140.258 245.229 139.699C245.381 139.14 245.56 138.605 245.763 138.097C246.577 135.044 246.984 132.094 246.984 129.246C245.356 128.737 244.263 127.898 243.703 126.728C243.144 125.558 242.94 124.338 243.093 123.066C243.245 121.794 243.627 120.65 244.237 119.633C244.848 118.615 245.458 118.005 246.068 117.802C246.882 117.497 247.569 117.599 248.128 118.107C248.688 118.616 249.171 119.277 249.578 120.091C249.984 121.006 250.341 122.024 250.646 123.142C250.748 123.55 250.799 123.931 250.799 124.287C250.799 124.643 250.85 124.974 250.951 125.279C251.359 125.38 251.791 125.431 252.249 125.431C252.706 125.431 253.19 125.482 253.698 125.584C255.02 125.584 256.063 125.508 256.826 125.355C257.589 125.203 258.225 124.999 258.734 124.745C259.243 124.491 259.7 124.16 260.108 123.753C260.514 123.347 261.023 122.889 261.634 122.38C261.939 122.176 262.32 121.973 262.778 121.769C263.236 121.566 263.566 121.617 263.769 121.922C264.075 122.329 264.126 122.812 263.922 123.372C263.718 123.931 263.515 124.363 263.312 124.668L263.313 124.667ZM264.839 94.9121C264.635 94.5053 264.203 94.1241 263.542 93.7678C262.881 93.4115 261.914 93.5137 260.643 94.073C259.371 94.6324 257.82 95.8022 255.989 97.5824C254.158 99.3626 252.021 102.236 249.58 106.204H251.106C254.056 106.102 256.447 105.543 258.278 104.525C260.109 103.508 261.533 102.389 262.551 101.168C263.569 99.9475 264.23 98.726 264.535 97.5058C264.84 96.2849 264.942 95.4204 264.84 94.9115L264.839 94.9121ZM288.185 121.463C287.066 123.803 286.151 126.244 285.438 128.788C284.625 131.432 284.243 133.899 284.294 136.188C284.345 138.477 285.082 140.639 286.507 142.673L286.812 143.283C287.015 143.69 287.015 144.046 286.812 144.352C286.608 144.962 285.947 145.165 284.828 144.962C282.896 144.962 281.217 144.606 279.792 143.894C278.572 143.385 277.453 142.47 276.436 141.147C275.418 139.825 274.91 137.943 274.91 135.502C273.181 137.74 271.146 139.672 268.806 141.3C266.466 142.928 263.822 143.437 260.872 142.826C258.837 142.419 257.387 141.58 256.523 140.308C255.658 139.037 255.175 137.537 255.073 135.807C254.971 134.078 255.2 132.196 255.76 130.161C256.319 128.127 257.032 126.143 257.896 124.21C258.761 122.277 259.702 120.471 260.719 118.793C261.736 117.115 262.652 115.766 263.465 114.75C264.889 112.817 266.695 110.934 268.882 109.104C271.07 107.273 273.384 106.509 275.825 106.815C276.232 106.917 276.766 107.043 277.428 107.196C278.089 107.349 278.725 107.679 279.335 108.188C280.455 109.001 281.115 110.044 281.319 111.316C281.522 112.587 281.421 113.935 281.014 115.359V115.511H281.166C282.082 114.799 283.15 114.698 284.371 115.206C284.473 115.308 284.574 115.359 284.676 115.359C286.406 116.274 287.525 117.495 288.034 119.021C288.44 119.733 288.492 120.547 288.186 121.463H288.185ZM276.741 125.125C277.047 124.006 277.402 122.887 277.809 121.768C278.216 120.649 278.674 119.53 279.182 118.411C278.673 118.92 278.139 119.352 277.58 119.708C277.021 120.064 276.334 120.242 275.52 120.242C274.604 120.242 274.096 120.089 273.994 119.784C273.79 119.377 273.79 118.868 273.994 118.258C273.994 118.258 274.147 118.105 274.452 117.8L274.604 117.647C275.011 117.138 275.342 116.325 275.596 115.206C275.85 114.086 275.52 113.222 274.604 112.611C273.79 112.103 272.824 112.205 271.705 112.916C270.586 113.629 269.467 114.697 268.348 116.121C267.229 117.545 266.212 119.172 265.296 121.004C264.38 122.835 263.77 124.563 263.465 126.192C263.16 127.819 263.262 129.244 263.77 130.464C264.279 131.685 265.398 132.346 267.127 132.448C268.246 132.55 269.645 132.067 271.323 130.998C273.002 129.93 274.553 128.786 275.977 127.565C276.18 127.158 276.308 126.751 276.359 126.345C276.41 125.938 276.537 125.531 276.74 125.124L276.741 125.125ZM321.603 121.463C320.484 123.803 319.569 126.244 318.856 128.788C318.042 131.432 317.661 133.899 317.712 136.188C317.763 138.477 318.5 140.639 319.924 142.673L320.229 143.283C320.433 143.69 320.433 144.046 320.229 144.352C320.026 144.962 319.364 145.165 318.246 144.962C316.313 144.962 314.635 144.606 313.21 143.894C311.99 143.385 310.871 142.47 309.853 141.147C308.836 139.825 308.327 137.943 308.327 135.502C306.598 137.74 304.563 139.672 302.224 141.3C299.884 142.928 297.239 143.437 294.289 142.826C292.254 142.419 290.805 141.58 289.94 140.308C289.075 139.037 288.593 137.537 288.491 135.807C288.389 134.078 288.618 132.196 289.177 130.161C289.737 128.127 290.449 126.143 291.314 124.21C292.178 122.277 293.12 120.471 294.137 118.793C295.154 117.115 296.07 115.766 296.883 114.75C298.307 112.817 300.113 110.934 302.3 109.104C304.487 107.273 306.801 106.509 309.243 106.815C309.65 106.917 310.184 107.043 310.845 107.196C311.506 107.349 312.142 107.679 312.752 108.188C313.872 109.001 314.533 110.044 314.736 111.316C314.939 112.587 314.838 113.935 314.431 115.359V115.511H314.584C315.499 114.799 316.567 114.698 317.788 115.206C317.89 115.308 317.991 115.359 318.094 115.359C319.823 116.274 320.942 117.495 321.45 119.021C321.857 119.733 321.908 120.547 321.603 121.463ZM310.159 125.125C310.464 124.006 310.82 122.887 311.227 121.768C311.634 120.649 312.091 119.53 312.6 118.411C312.091 118.92 311.557 119.352 310.998 119.708C310.438 120.064 309.751 120.242 308.938 120.242C308.022 120.242 307.513 120.089 307.412 119.784C307.208 119.377 307.208 118.868 307.412 118.258C307.412 118.258 307.564 118.105 307.87 117.8L308.022 117.647C308.429 117.138 308.76 116.325 309.014 115.206C309.268 114.086 308.938 113.222 308.022 112.611C307.208 112.103 306.241 112.205 305.123 112.916C304.003 113.629 302.885 114.697 301.765 116.121C300.647 117.545 299.629 119.172 298.714 121.004C297.798 122.835 297.188 124.563 296.883 126.192C296.577 127.819 296.679 129.244 297.188 130.464C297.697 131.685 298.815 132.346 300.544 132.448C301.664 132.55 303.062 132.067 304.741 130.998C306.42 129.93 307.971 128.786 309.395 127.565C309.598 127.158 309.726 126.751 309.776 126.345C309.827 125.938 309.954 125.531 310.157 125.124L310.159 125.125ZM349.833 93.5392C348.714 95.0652 347.493 96.8959 346.171 99.0324C344.848 101.168 343.5 103.508 342.127 106.052C340.753 108.595 339.431 111.316 338.16 114.215C336.888 117.115 335.744 120.09 334.726 123.142C334.625 123.345 334.574 123.472 334.574 123.524C334.574 123.574 334.523 123.701 334.421 123.905C334.117 124.718 333.582 126.474 332.819 129.169C332.056 131.865 331.675 134.536 331.675 137.18C331.675 138.299 331.852 139.266 332.209 140.079C332.565 140.893 332.743 141.656 332.743 142.368C332.743 142.978 332.514 143.359 332.057 143.512C331.599 143.665 331.218 143.741 330.912 143.741C330.403 143.638 329.666 143.486 328.699 143.283C327.733 143.08 326.767 142.647 325.8 141.986C324.834 141.324 323.995 140.409 323.283 139.239C322.57 138.069 322.214 136.467 322.214 134.433C322.214 132.398 322.469 130.364 322.978 128.329C323.486 126.295 323.995 124.565 324.504 123.141C324.606 122.734 325.063 121.438 325.877 119.25C326.691 117.063 327.658 114.494 328.777 111.544C329.895 108.594 331.167 105.441 332.591 102.083C334.016 98.726 335.491 95.624 337.016 92.775C334.066 92.775 331.116 93.1057 328.165 93.7666C325.216 94.4281 322.163 94.962 319.01 95.3693C315.958 95.6745 313.415 95.649 311.38 95.2927C309.346 94.937 307.744 94.3515 306.573 93.538C305.404 92.7245 304.564 91.7828 304.056 90.7151C303.547 89.6469 303.293 88.5531 303.293 87.4338C303.293 86.824 303.471 85.8062 303.827 84.3823C304.183 82.9578 304.819 82.2458 305.734 82.2458C306.039 82.2458 306.573 82.4999 307.336 83.0088C308.099 83.5177 309.269 84.1026 310.846 84.7635C312.423 85.4244 314.534 86.0348 317.178 86.5948C319.823 87.1541 323.18 87.4849 327.249 87.5864C329.385 87.688 330.759 87.739 331.369 87.739C331.979 87.739 332.463 87.7135 332.819 87.663C333.175 87.6119 333.76 87.587 334.573 87.587C335.387 87.587 337.116 87.6375 339.761 87.7396C341.084 85.8068 342.253 84.3829 343.271 83.4666C344.288 82.551 346.017 82.0932 348.459 82.0932C348.255 82.0932 348.459 82.0932 349.069 82.0932C349.679 82.0932 350.417 82.2458 351.281 82.551C352.147 82.8562 352.935 83.3651 353.647 84.0771C354.359 84.789 354.766 85.8062 354.867 87.1286C354.867 87.5353 354.563 88.0442 353.952 88.6547C354.969 88.6547 356.317 88.7562 357.996 88.9593C359.674 89.163 361.302 89.5442 362.878 90.1041C364.455 90.6635 365.828 91.4265 366.998 92.3926C368.168 93.3593 368.753 94.6057 368.753 96.1312C368.753 97.8603 368.193 99.0051 367.074 99.5645C365.955 100.124 365.04 100.506 364.328 100.709C363.819 100.709 363.514 100.506 363.412 100.098C363.31 99.0811 362.776 98.14 361.81 97.2754C360.843 96.4108 359.673 95.6989 358.3 95.1395C356.927 94.5802 355.477 94.1479 353.951 93.8421C352.425 93.5374 351.052 93.4353 349.831 93.5374L349.833 93.5392Z" fill="#29A383"/>
</svg>
